# MPT
# Alias - a_position
# Core - 0, 0, 0, false
o Tile
v 0.000000 0.250000 0.000000
v 0.000000 0.250000 -2.000000
v -1.732051 0.250000 -1.000000
v -1.732051 0.250000 1.000000
v 0.000000 0.250000 2.000000
v 1.732051 0.250000 1.000000
v 1.732051 0.250000 -1.000000
v 0.000000 -0.250000 0.000000
v 0.000000 -0.250000 -2.000000
v -1.732051 -0.250000 -1.000000
v -1.732051 -0.250000 1.000000
v 0.000000 -0.250000 2.000000
v 1.732051 -0.250000 1.000000
v 1.732051 -0.250000 -1.000000
vn -0.0000 1.0000 -0.0000
vn 0.5000 -0.0000 0.8660
vn -0.5000 -0.0000 -0.8660
vn 0.5000 -0.0000 -0.8660
vn -0.5000 -0.0000 0.8660
vn -1.0000 -0.0000 -0.0000
vn 1.0000 -0.0000 -0.0000
vt 0.208333 0.144338
vt 0.125000 0.000000
vt 0.291667 0.000000
vt 0.375000 0.144338
vt 0.291667 0.288675
vt 0.125000 0.288675
vt 0.041667 0.144338
vt 0.208333 0.433013
vt 0.125000 0.288675
vt 0.291667 0.288675
vt 0.375000 0.433013
vt 0.291667 0.577350
vt 0.125000 0.577350
vt 0.041667 0.433013
vt 0.000000 0.333333
vt 0.000000 0.500000
vt 0.041667 0.333333
vt 0.041667 0.500000
vt 0.041667 0.666667
vt 0.000000 0.666667
vt 0.000000 0.833333
vt 0.041667 0.833333
vt 0.041667 1.000000
vt 0.000000 1.000000
vt 0.000000 0.166667
vt 0.041667 0.000000
vt 0.000000 0.000000
vt 0.041667 0.166667
s 0
f 1/1/1 2/2/1 3/3/1
f 1/1/1 3/3/1 4/4/1
f 1/1/1 4/4/1 5/5/1
f 1/1/1 5/5/1 6/6/1
f 1/1/1 6/6/1 7/7/1
f 1/1/1 7/7/1 2/2/1
f 8/8/1 9/9/1 10/10/1
f 8/8/1 10/10/1 11/11/1
f 8/8/1 11/11/1 12/12/1
f 8/8/1 12/12/1 13/13/1
f 8/8/1 13/13/1 14/14/1
f 8/8/1 14/14/1 9/9/1
f 6/15/2 5/16/2 13/17/2
f 13/17/3 12/18/3 5/16/3
f 11/19/4 5/16/4 12/18/4
f 5/16/5 4/20/5 11/19/5
f 3/21/6 11/19/6 4/20/6
f 11/19/7 10/22/7 3/21/7
f 9/23/2 3/21/2 10/22/2
f 3/21/3 2/24/3 9/23/3
f 7/25/4 9/26/4 2/27/4
f 9/26/5 14/28/5 7/25/5
f 7/25/7 6/15/7 14/28/7
f 14/28/6 13/17/6 6/15/6
